<?xml version="1.0" encoding="UTF-8"?>
<svg width="16" height="20" viewBox="0 0 16 20" fill="none" xmlns="http://www.w3.org/2000/svg">
<path d="M3.276 6.492C3.252 6.212 3.224 5.88 3.192 5.496C3.16 5.112 3.132 4.72 3.108 4.32C3.092 3.92 3.084 3.56 3.084 3.24V0.48H4.116V3.24C4.116 3.56 4.104 3.92 4.08 4.32C4.064 4.72 4.04 5.112 4.008 5.496C3.984 5.88 3.96 6.212 3.936 6.492H3.276ZM2.856 9V7.536H4.344V9H2.856Z" fill="white"/>
<path d="M9.08 9V0.48H11.48C12.416 0.48 13.12 0.687999 13.592 1.104C14.072 1.52 14.312 2.088 14.312 2.808C14.312 3.16 14.228 3.476 14.06 3.756C13.892 4.036 13.656 4.256 13.352 4.416C13.048 4.576 12.696 4.656 12.296 4.656V4.584C12.792 4.584 13.216 4.668 13.568 4.836C13.928 5.004 14.2 5.24 14.384 5.544C14.576 5.848 14.672 6.208 14.672 6.624C14.672 7.36 14.416 7.94 13.904 8.364C13.392 8.788 12.684 9 11.78 9H9.08ZM10.112 7.992H11.792C12.408 7.992 12.86 7.872 13.148 7.632C13.444 7.392 13.592 7.056 13.592 6.624C13.592 6.168 13.44 5.812 13.136 5.556C12.832 5.3 12.384 5.172 11.792 5.172H10.112V7.992ZM10.112 4.164H11.528C12.12 4.164 12.552 4.048 12.824 3.816C13.096 3.584 13.232 3.256 13.232 2.832C13.232 2.4 13.096 2.068 12.824 1.836C12.552 1.604 12.12 1.488 11.528 1.488H10.112V4.164Z" fill="white"/>
<path d="M0.84 19V10.48H2.304L5.328 17.824V10.48H6.36V19H4.896L1.872 11.656V19H0.84Z" fill="white"/>
<path d="M11.576 19.192C10.976 19.192 10.44 19.028 9.968 18.7C9.504 18.364 9.136 17.868 8.864 17.212C8.592 16.548 8.456 15.728 8.456 14.752C8.456 13.832 8.58 13.04 8.828 12.376C9.084 11.712 9.448 11.2 9.92 10.84C10.392 10.472 10.96 10.288 11.624 10.288C12.144 10.288 12.604 10.404 13.004 10.636C13.412 10.868 13.752 11.192 14.024 11.608C14.296 12.016 14.492 12.488 14.612 13.024L13.532 13.096C13.396 12.568 13.168 12.136 12.848 11.8C12.536 11.464 12.128 11.296 11.624 11.296C11.184 11.296 10.808 11.432 10.496 11.704C10.184 11.968 9.944 12.36 9.776 12.88C9.616 13.392 9.536 14.016 9.536 14.752C9.536 15.48 9.62 16.1 9.788 16.612C9.956 17.124 10.196 17.516 10.508 17.788C10.828 18.052 11.216 18.184 11.672 18.184C12.08 18.184 12.428 18.08 12.716 17.872C13.012 17.656 13.244 17.36 13.412 16.984C13.58 16.6 13.672 16.164 13.688 15.676H11.648V14.692H14.648V19H13.688L13.64 16.984L13.928 17.08C13.816 17.488 13.66 17.852 13.46 18.172C13.268 18.492 13.016 18.744 12.704 18.928C12.4 19.104 12.024 19.192 11.576 19.192Z" fill="white"/>
</svg>
